<svg id="Layer_1" data-name="Layer 1" xmlns="http://www.w3.org/2000/svg" xmlns:xlink="http://www.w3.org/1999/xlink" viewBox="0 0 273.89 270.45"><defs><style>.cls-1,.cls-3{fill:#fff;stroke-miterlimit:22.93;}.cls-1{stroke:#fff;stroke-width:3px;}.cls-2{fill:none;}.cls-3{stroke:#231f20;stroke-width:0.57px;fill-rule:evenodd;}</style><symbol id="Plus" data-name="Plus" viewBox="0 0 115 115"><polygon class="cls-1" points="66.47 27.61 48.53 27.61 48.53 48.53 27.61 48.53 27.61 66.47 48.53 66.47 48.53 87.38 66.47 87.38 66.47 66.47 87.39 66.47 87.39 48.53 66.47 48.53 66.47 27.61"/><path class="cls-1" d="M57.5,1.5a56,56,0,1,0,56,56A56,56,0,0,0,57.5,1.5Zm0,103.25A47.25,47.25,0,1,1,104.75,57.5,47.3,47.3,0,0,1,57.5,104.75Z"/></symbol></defs><title>addTag</title><rect class="cls-2" width="270" height="270" rx="15.71" ry="15.71"/><path class="cls-3" d="M209.64,7.58c6.2-1.28,9.83,1.27,11,7.49,2.29,27.39,8.18,93.23,7.1,94.84l-104.53,156a11.16,11.16,0,0,1-15.44,3L16.92,208a11.16,11.16,0,0,1-3-15.44l104.53-156c1.27-1.89,64.89-21,91.24-29.05ZM201.39,31a8.71,8.71,0,1,0,2.38,12.08A8.71,8.71,0,0,0,201.39,31ZM118.71,75.74a3.28,3.28,0,0,0-4.54.9h0a3.28,3.28,0,0,0,.9,4.54l72.73,48.73a3.28,3.28,0,0,0,4.54-.9h0a3.28,3.28,0,0,0-.9-4.54L118.71,75.74ZM97.3,107.69a3.28,3.28,0,0,0-4.54.9h0a3.28,3.28,0,0,0,.9,4.54l72.73,48.73a3.28,3.28,0,0,0,4.54-.9h0a3.28,3.28,0,0,0-.9-4.54L97.3,107.69ZM75.89,139.63a3.28,3.28,0,0,0-4.54.9h0a3.28,3.28,0,0,0,.9,4.54L145,193.8a3.28,3.28,0,0,0,4.54-.9h0a3.28,3.28,0,0,0-.9-4.54L75.89,139.63ZM54.49,171.58a3.28,3.28,0,0,0-4.54.9h0a3.28,3.28,0,0,0,.9,4.54l72.73,48.73a3.28,3.28,0,0,0,4.54-.9h0a3.28,3.28,0,0,0-.9-4.54Z" transform="translate(-9.11 -4)"/><use id="Plus-3" data-name="Plus" width="115" height="115" transform="translate(161.89 158.45) scale(0.97)" xlink:href="#Plus"/></svg>