<svg xmlns="http://www.w3.org/2000/svg" viewBox="0 0 414 414"><defs><style>.cls-1{fill:#fff;}</style></defs><title>arrow_down</title><g id="Layer_2" data-name="Layer 2"><g id="Capa_1" data-name="Capa 1"><path class="cls-1" d="M310.91,386.24a206.13,206.13,0,0,0,75.33-75.33Q414,263.33,414,207T386.24,103.1a206.08,206.08,0,0,0-75.33-75.34Q263.33,0,207,0T103.1,27.76A206.13,206.13,0,0,0,27.76,103.1Q0,150.67,0,207T27.76,310.91a206.08,206.08,0,0,0,75.33,75.33Q150.67,414,207,414T310.91,386.24Zm-116-44.75L170.35,317,72.78,219.4a17.57,17.57,0,0,1,0-24.26l24.53-24.53a16.92,16.92,0,0,1,24.26,0l50.94,50.94V86.25A17.49,17.49,0,0,1,189.75,69h34.5A17.49,17.49,0,0,1,241.5,86.25V221.56l50.94-50.94a17.59,17.59,0,0,1,24.26,0l24.53,24.53a17.6,17.6,0,0,1,0,24.26L243.66,317,219.13,341.5a17.57,17.57,0,0,1-24.26,0Z"/></g></g></svg>