<svg id="Layer_1" data-name="Layer 1" xmlns="http://www.w3.org/2000/svg" viewBox="0 0 270 270"><defs><style>.cls-1{fill:none;}.cls-2{fill:#fff;stroke:#231f20;stroke-miterlimit:22.93;stroke-width:0.57px;fill-rule:evenodd;}</style></defs><title>calendar</title><rect class="cls-1" width="270" height="270" rx="15.71" ry="15.71"/><path class="cls-2" d="M35.75,30.24H50.83v9.5h9v-9.5H86.13v9.5h9v-9.5h26.32v9.5h9v-9.5h26.32v9.5h9v-9.5H192v9.5h9v-9.5h26.32v9.5h9v-9.5H251.4a14.16,14.16,0,0,1,14.12,14.12v208a14.16,14.16,0,0,1-14.12,14.12H35.75a14.16,14.16,0,0,1-14.12-14.12v-208A14.16,14.16,0,0,1,35.75,30.24Zm1,50.7V251.67H250.44V80.94ZM55.59,11.36a4.77,4.77,0,0,0-4.76,4.76V39.74h9V15.59a4.24,4.24,0,0,0-4.23-4.23Zm35.3,0a4.77,4.77,0,0,0-4.76,4.76V39.74h9V15.59a4.24,4.24,0,0,0-4.23-4.23Zm35.3,0a4.77,4.77,0,0,0-4.76,4.76V39.74h9V15.59a4.24,4.24,0,0,0-4.23-4.23Zm35.3,0a4.77,4.77,0,0,0-4.76,4.76V39.74h9V15.59a4.24,4.24,0,0,0-4.23-4.23Zm35.3,0A4.77,4.77,0,0,0,192,16.12V39.74h9V15.59a4.24,4.24,0,0,0-4.23-4.23Zm35.3,0a4.77,4.77,0,0,0-4.76,4.76V39.74h9V15.59a4.24,4.24,0,0,0-4.23-4.23ZM208.4,215.56V243.8h28.24V215.56Zm-39.47,0V243.8h28.24V215.56Zm-39.47,0V243.8H157.7V215.56Zm-39.47,0V243.8h28.24V215.56Zm-39.47,0V243.8H78.75V215.56Zm157.9-41.72v28.24h28.24V173.84Zm-39.47,0v28.24h28.24V173.84Zm-39.47,0v28.24H157.7V173.84Zm-39.47,0v28.24h28.24V173.84Zm-39.47,0v28.24H78.75V173.84Zm157.9-41.72v28.24h28.24V132.13Zm-39.47,0v28.24h28.24V132.13Zm-39.47,0v28.24H157.7V132.13Zm-39.47,0v28.24h28.24V132.13Zm-39.47,0v28.24H78.75V132.13ZM208.4,90.41v28.24h28.24V90.41Zm-39.47,0v28.24h28.24V90.41Zm-39.47,0v28.24H157.7V90.41ZM90,90.41v28.24h28.24V90.41Z" transform="translate(-7.72 -3)"/></svg>