<svg xmlns="http://www.w3.org/2000/svg" viewBox="0 0 286.01 276.34"><defs><style>.cls-1{fill:#fff;}</style></defs><title>contact</title><g id="Layer_2" data-name="Layer 2"><g id="Capa_1" data-name="Capa 1"><path class="cls-1" d="M106.36,160.31a55.9,55.9,0,0,0,41-17,55.89,55.89,0,0,0,17-41,55.9,55.9,0,0,0-17-41,55.91,55.91,0,0,0-41-17,55.9,55.9,0,0,0-41,17,55.9,55.9,0,0,0-17,41,55.89,55.89,0,0,0,17,41A55.9,55.9,0,0,0,106.36,160.31Z"/><path class="cls-1" d="M212.2,221.57a154.68,154.68,0,0,0-2.12-16.47,128.1,128.1,0,0,0-4-16.39,77.75,77.75,0,0,0-6.5-14.73,53.06,53.06,0,0,0-9.37-12.24,39.45,39.45,0,0,0-12.92-8.08,45.42,45.42,0,0,0-16.85-3q-1.36,0-6.35,3.25t-11.25,7.25a71.47,71.47,0,0,1-16.32,7.25,64.23,64.23,0,0,1-40.34,0,71.45,71.45,0,0,1-16.32-7.25q-6.27-4-11.25-7.25t-6.35-3.25a45.39,45.39,0,0,0-16.85,3,39.44,39.44,0,0,0-12.92,8.08A53.13,53.13,0,0,0,13.14,174a77.87,77.87,0,0,0-6.5,14.73,128.11,128.11,0,0,0-4,16.39A153.77,153.77,0,0,0,.53,221.57Q0,229.21,0,237.21q0,18.13,11,28.63t29.31,10.5h132q18.28,0,29.31-10.5t11-28.63Q212.73,229.21,212.2,221.57Z"/><path class="cls-1" d="M263.56,52.37a7.49,7.49,0,0,0-2.16-5.32L219.61,5.32a18.09,18.09,0,0,0-6-3.77A18.05,18.05,0,0,0,206.81,0H182.49a7.19,7.19,0,0,0-5.26,2.22A7.19,7.19,0,0,0,175,7.48V31.8a18,18,0,0,0,1.55,6.84,17.44,17.44,0,0,0,3.77,5.9l41.79,41.85a7.16,7.16,0,0,0,5.26,2.16,7.49,7.49,0,0,0,5.32-2.16l28.7-28.76A7.16,7.16,0,0,0,263.56,52.37ZM199,24a7.48,7.48,0,0,1-12.77-5.29,7.48,7.48,0,0,1,15,0A7.21,7.21,0,0,1,199,24Z"/><path class="cls-1" d="M283.84,47.05,242.05,5.32a18.09,18.09,0,0,0-6-3.77A18,18,0,0,0,229.25,0H216.16A18.05,18.05,0,0,1,223,1.55a18.12,18.12,0,0,1,6,3.77l41.79,41.73a7.48,7.48,0,0,1,2.16,5.32,7.16,7.16,0,0,1-2.16,5.26L243.28,85.11a16.67,16.67,0,0,0,3.1,2.63,6.55,6.55,0,0,0,3.45.82,7.48,7.48,0,0,0,5.32-2.16l28.7-28.76A7.16,7.16,0,0,0,286,52.37,7.49,7.49,0,0,0,283.84,47.05Z"/></g></g></svg>