<svg id="Layer_1" data-name="Layer 1" xmlns="http://www.w3.org/2000/svg" viewBox="0 0 269 269"><defs><style>.cls-1{fill:none;}.cls-2{fill:#fff;stroke:#231f20;stroke-miterlimit:22.93;stroke-width:0.57px;fill-rule:evenodd;}</style></defs><title>delay</title><rect class="cls-1" width="269" height="269" rx="15.65" ry="15.65"/><path class="cls-2" d="M43.14,237.44h2.78l-.72-.59S40.8,183.48,74.4,157.19a59.39,59.39,0,0,1,20.77-12.37,12.33,12.33,0,0,0,4.86-5.06,7.09,7.09,0,0,0,0-5.07,12.32,12.32,0,0,0-4.86-5.06A59.41,59.41,0,0,1,74.4,117.26C40.8,91,45.19,37.6,45.19,37.6l.21-.17H43.14A14.75,14.75,0,0,1,28.43,22.71h0A14.75,14.75,0,0,1,43.14,8H243.95a14.75,14.75,0,0,1,14.71,14.71h0a14.75,14.75,0,0,1-14.71,14.71h-2.26l.21.17s4.39,53.37-29.21,79.67a59.42,59.42,0,0,1-20.77,12.37,12.33,12.33,0,0,0-4.86,5.06,7.12,7.12,0,0,0,0,5.07,12.34,12.34,0,0,0,4.86,5.06,59.4,59.4,0,0,1,20.77,12.37c33.6,26.29,29.21,79.66,29.21,79.66l-.72.59h2.77a14.75,14.75,0,0,1,14.71,14.71h0a14.75,14.75,0,0,1-14.71,14.71H209.72A6,6,0,0,0,209,268h-.66s.5-.43,1.26-1.13H183.54a6.15,6.15,0,0,0-.69,1.13h-.66l1.15-1.13H43.14a14.75,14.75,0,0,1-14.71-14.71h0a14.75,14.75,0,0,1,14.71-14.71Zm40.69,0c8.42-14.22,29.13-44.49,55-48.67,0,0,38,12.27,60.47,48.67h13.29c.08-.21.19-.49.34-.86h.66l-.93.86h9.58c-1.13-20.35-7.11-56.11-33.88-77.06A68.94,68.94,0,0,0,164.29,146s-4-2.2-5.64-5.87a8.24,8.24,0,0,1,0-5.88c1.59-3.67,5.64-5.87,5.64-5.87a68.91,68.91,0,0,0,24.1-14.35C215,93.25,221.06,57.84,222.24,37.42H64.85C66,57.84,72.11,93.25,98.7,114.06a68.91,68.91,0,0,0,24.1,14.35s4,2.2,5.64,5.87a8.24,8.24,0,0,1,0,5.88c-1.59,3.67-5.64,5.87-5.64,5.87a68.93,68.93,0,0,0-24.1,14.35c-26.76,20.95-32.75,56.7-33.87,77.06Zm9-168.38-.72,1.52c5.47,36,32.93,20,48.18,51.84,3,12.59,8.11,5.91,8.11,5.91a44.25,44.25,0,0,1,23.91-27.74,32.62,32.62,0,0,0,24.25-22.42c-26.14,7.46-66.52-5.77-66.52-5.77-23.9-6.84-37.23-3.34-37.23-3.34Zm48.59,92.62a7.6,7.6,0,1,0,7.6,7.6,7.6,7.6,0,0,0-7.6-7.6Zm1.73-23.15a4.6,4.6,0,1,0,4.6,4.6A4.6,4.6,0,0,0,143.16,138.54Z" transform="translate(-8.6 -3)"/></svg>