<svg id="Layer_1" data-name="Layer 1" xmlns="http://www.w3.org/2000/svg" viewBox="0 0 270 270"><defs><style>.cls-1{fill:none;}.cls-2{fill:#fff;fill-rule:evenodd;}</style></defs><title>eject</title><rect class="cls-1" width="270" height="270" rx="15.71" ry="15.71"/><path class="cls-2" d="M60.38,159.54H231.92c22.51,0,24.72-18.76,19.54-27.14l-7.62-9.67c-10.23-12.5-81.55-103.46-85.07-106.54a64,64,0,0,0-5-4c-7.23-4.56-14.76-1.53-20.59,4.31a110.91,110.91,0,0,0-7.86,9.43c-25.13,31.54-51.15,65.37-76.53,96.4-6.12,7.48-12.15,13-9.71,23.19S49.85,159.54,60.38,159.54Z" transform="translate(-8.41 -3)"/><path class="cls-2" d="M36.86,200.36v40.12c0,9.84,6.92,14.53,16.6,14.53H238.84c5.16,0,9-1.15,11.78-3.44a14.18,14.18,0,0,0,4.82-11.09V200.36c0-9.84-6.92-14.53-16.6-14.53H53.46C43.86,185.83,36.86,190.48,36.86,200.36Z" transform="translate(-8.41 -3)"/></svg>