<svg id="Layer_1" data-name="Layer 1" xmlns="http://www.w3.org/2000/svg" viewBox="0 0 276 276"><defs><style>.cls-1{fill:none;}.cls-2,.cls-3{fill:#fff;}.cls-2{stroke:#fff;stroke-miterlimit:22.93;stroke-width:6px;fill-rule:evenodd;}</style></defs><title>landingPage</title><rect class="cls-1" width="276" height="276" rx="16.06" ry="16.06"/><path class="cls-2" d="M136.42,263.12h39.09s9,1.29,9-3.53-9-5.43-9-5.43c-14.82-6-13.45-14.65-13.45-14.65V230H118.93v9.48s1.38,8.62-13.45,14.65c0,0-9,.61-9,5.43s9,3.53,9,3.53Z" transform="translate(-4.87)"/><path class="cls-2" d="M24.71,58.32h89.75V73H22.26v124H261.62V73H167V58.32h89.33A16.76,16.76,0,0,1,273,75V199.8a16.75,16.75,0,0,1-16.71,16.71H24.71A16.75,16.75,0,0,1,8,199.8V75A16.76,16.76,0,0,1,24.71,58.32Z" transform="translate(-4.87)"/><rect class="cls-3" x="85.71" y="176.28" width="99.83" height="10.54" rx="5.27" ry="5.27"/><rect class="cls-3" x="85.71" y="158.65" width="99.83" height="10.54" rx="5.27" ry="5.27"/><circle class="cls-3" cx="135.99" cy="196.95" r="1.98"/><path class="cls-2" d="M130.6,15.77H150.4a5.07,5.07,0,0,1,5.06,5.06v85.69L175.6,85.35a3.22,3.22,0,0,1,4.55-.11l9.13,8.68a3.22,3.22,0,0,1,.11,4.55l-45.9,48.23a5.27,5.27,0,0,1-6,0L91.61,98.47a3.22,3.22,0,0,1,.11-4.55l9.13-8.68a3.22,3.22,0,0,1,4.55.11l20.14,21.17V20.83A5.07,5.07,0,0,1,130.6,15.77Z" transform="translate(-4.87)"/></svg>