<svg id="Layer_1" data-name="Layer 1" xmlns="http://www.w3.org/2000/svg" viewBox="0 0 270 270"><defs><style>.cls-1{fill:none;}.cls-2{fill:#fff;stroke:#231f20;stroke-miterlimit:22.93;stroke-width:0.57px;fill-rule:evenodd;}</style></defs><title>product</title><rect class="cls-1" width="270" height="270" rx="15.71" ry="15.71"/><path class="cls-2" d="M143.92,119.74l25.82,51.92,95-27L238.4,91.66l-94.47,28.09Zm-95-27,95,27-26.67,51.35L21.65,144.71,48.88,92.79ZM12,50.09l36.88,42.7,93.9-27L105.91,23.28,12,50.09ZM146.2,64.7l34.9-41.42L275,49.95,238.4,91.66l-92.2-27Zm-96.46,101-.57,64,87.67,23.83L136.27,160l-12.2,27L49.74,165.7Zm100.15-3.4,13.33,24.4,75.18-21.85.29,65.16-88.8,23Z" transform="translate(-8.02 -3)"/></svg>