<svg id="Layer_1" data-name="Layer 1" xmlns="http://www.w3.org/2000/svg" viewBox="0 0 285.92 264.44"><defs><style>.cls-1{fill:none;}</style></defs><title>product3</title><g id="_Group_" data-name="&lt;Group&gt;"><g id="_Group_2" data-name="&lt;Group&gt;"><path id="_Compound_Path_" data-name="&lt;Compound Path&gt;" class="cls-1" d="M42.64,110a6.61,6.61,0,0,1-4.9-2.17l-36-39.71A6.6,6.6,0,0,1,3.67,57.81L105.51,5.73a6.59,6.59,0,0,1,8.13,1.71l34.52,42.44A6.6,6.6,0,0,1,146,60L45.56,109.32A6.57,6.57,0,0,1,42.64,110ZM17.36,65.64,44.2,95.28l88.49-43.5L106.76,19.92Z" transform="translate(-0.08 -5)"/></g><g id="_Group_3" data-name="&lt;Group&gt;"><path id="_Compound_Path_2" data-name="&lt;Compound Path&gt;" class="cls-1" d="M124,210.85a6.61,6.61,0,0,1-3-.72L20.47,159a6.6,6.6,0,0,1-3.17-8.26L36.48,101a6.61,6.61,0,0,1,9.09-3.54L146,147.2a6.6,6.6,0,0,1,3.26,8.22l-19.08,51.13a6.61,6.61,0,0,1-6.19,4.29ZM31.77,149.93,120.36,195l14.41-38.62L46.2,112.53Z" transform="translate(-0.08 -5)"/></g><g id="_Group_4" data-name="&lt;Group&gt;"><path id="_Path_" data-name="&lt;Path&gt;" class="cls-1" d="M140.35,268.87,32.14,220.57a6.6,6.6,0,0,1-3.91-6V178.7H41.43v31.56l104.3,46.55Z" transform="translate(-0.08 -5)"/></g><g id="_Group_5" data-name="&lt;Group&gt;"><path id="_Compound_Path_3" data-name="&lt;Compound Path&gt;" class="cls-1" d="M243.43,110a6.58,6.58,0,0,1-2.91-.68L140.12,60a6.6,6.6,0,0,1-2.21-10.09L172.44,7.44a6.59,6.59,0,0,1,8.13-1.71L282.4,57.81a6.6,6.6,0,0,1,1.89,10.31l-36,39.71A6.61,6.61,0,0,1,243.43,110Zm-90-58.23,88.49,43.5,26.84-29.63L179.31,19.92Z" transform="translate(-0.08 -5)"/></g><g id="_Group_6" data-name="&lt;Group&gt;"><path id="_Compound_Path_4" data-name="&lt;Compound Path&gt;" class="cls-1" d="M162.12,210.85a6.61,6.61,0,0,1-6.19-4.29l-19.08-51.13a6.6,6.6,0,0,1,3.26-8.22L240.5,97.48A6.61,6.61,0,0,1,249.6,101l19.17,49.71A6.6,6.6,0,0,1,265.6,159L165.11,210.13A6.61,6.61,0,0,1,162.12,210.85Zm-10.81-54.46L165.72,195l88.59-45.08-14.42-37.4Z" transform="translate(-0.08 -5)"/></g><g id="_Group_7" data-name="&lt;Group&gt;"><path id="_Path_2" data-name="&lt;Path&gt;" class="cls-1" d="M143,269.44a6.6,6.6,0,0,1-6.6-6.6v-50.3h13.21v40.12l95-42.4v-32.5h13.21v36.79a6.6,6.6,0,0,1-3.91,6L145.73,268.87A6.6,6.6,0,0,1,143,269.44Z" transform="translate(-0.08 -5)"/></g></g></svg>