<svg xmlns="http://www.w3.org/2000/svg" viewBox="0 0 110 101.74"><defs><style>.cls-1{fill:#1ab394;}</style></defs><title>product_2</title><g id="Layer_2" data-name="Layer 2"><g id="Layer_1-2" data-name="Layer 1"><g id="_Group_" data-name="&lt;Group&gt;"><g id="_Group_2" data-name="&lt;Group&gt;"><g id="_Group_3" data-name="&lt;Group&gt;"><g id="_Group_4" data-name="&lt;Group&gt;"><path id="_Compound_Path_" data-name="&lt;Compound Path&gt;" class="cls-1" d="M16.38,40.4a2.54,2.54,0,0,1-1.88-.83L.66,24.29a2.54,2.54,0,0,1,.73-4L40.56.28a2.54,2.54,0,0,1,3.13.66L57,17.26a2.54,2.54,0,0,1-.85,3.88l-38.63,19A2.53,2.53,0,0,1,16.38,40.4ZM6.65,23.33,17,34.73,51,18,41,5.74Z"/></g><g id="_Group_5" data-name="&lt;Group&gt;"><path id="_Compound_Path_2" data-name="&lt;Compound Path&gt;" class="cls-1" d="M47.66,79.2a2.54,2.54,0,0,1-1.15-.28L7.85,59.25a2.54,2.54,0,0,1-1.22-3.18L14,36.94a2.54,2.54,0,0,1,3.5-1.36L56.13,54.71a2.54,2.54,0,0,1,1.25,3.16L50,77.54a2.54,2.54,0,0,1-2.38,1.65ZM12.19,55.76,46.28,73.1l5.54-14.86L17.74,41.37Z"/></g><g id="_Group_6" data-name="&lt;Group&gt;"><path id="_Path_" data-name="&lt;Path&gt;" class="cls-1" d="M54,101.52,12.33,82.94a2.54,2.54,0,0,1-1.5-2.32V66.83h5.08V79L56,96.88Z"/></g><g id="_Group_7" data-name="&lt;Group&gt;"><path id="_Compound_Path_3" data-name="&lt;Compound Path&gt;" class="cls-1" d="M93.63,40.4a2.53,2.53,0,0,1-1.12-.26l-38.63-19A2.54,2.54,0,0,1,53,17.26L66.31.94A2.54,2.54,0,0,1,69.44.28l39.18,20a2.54,2.54,0,0,1,.73,4L95.51,39.56A2.54,2.54,0,0,1,93.63,40.4ZM59,18,93,34.73l10.32-11.4L69,5.74Z"/></g><g id="_Group_8" data-name="&lt;Group&gt;"><path id="_Compound_Path_4" data-name="&lt;Compound Path&gt;" class="cls-1" d="M62.34,79.2A2.54,2.54,0,0,1,60,77.54L52.62,57.87a2.54,2.54,0,0,1,1.25-3.16L92.5,35.58A2.54,2.54,0,0,1,96,36.94l7.38,19.13a2.54,2.54,0,0,1-1.22,3.18L63.49,78.92A2.54,2.54,0,0,1,62.34,79.2Zm-4.16-21L63.73,73.1,97.81,55.76,92.26,41.37Z"/></g><g id="_Group_9" data-name="&lt;Group&gt;"><path id="_Path_2" data-name="&lt;Path&gt;" class="cls-1" d="M55,101.74a2.54,2.54,0,0,1-2.54-2.54V79.85h5.08V95.28L94.09,79V66.46h5.08V80.62a2.54,2.54,0,0,1-1.5,2.32L56,101.52A2.54,2.54,0,0,1,55,101.74Z"/></g></g></g></g></g></g></svg>