<svg id="Layer_1" data-name="Layer 1" xmlns="http://www.w3.org/2000/svg" xmlns:xlink="http://www.w3.org/1999/xlink" viewBox="0 0 272.89 270"><defs><style>.cls-1,.cls-3{fill:#fff;stroke-miterlimit:22.93;}.cls-1{stroke:#fff;stroke-width:3px;}.cls-2{fill:none;}.cls-3{stroke:#231f20;stroke-width:0.57px;fill-rule:evenodd;}</style><symbol id="Minus" data-name="Minus" viewBox="0 0 67 67"><rect class="cls-1" x="16.42" y="28.38" width="34.15" height="10.25"/><path class="cls-1" d="M33.5,1.5a32,32,0,1,0,32,32A32,32,0,0,0,33.5,1.5Zm0,59a27,27,0,1,1,27-27A27,27,0,0,1,33.5,60.5Z"/></symbol></defs><title>removeTag</title><rect class="cls-2" width="270" height="270" rx="15.71" ry="15.71"/><path class="cls-3" d="M209.64,7.58c6.2-1.28,9.83,1.27,11,7.49,2.29,27.39,8.18,93.23,7.1,94.84l-104.53,156a11.16,11.16,0,0,1-15.44,3L16.92,208a11.16,11.16,0,0,1-3-15.44l104.53-156c1.27-1.89,64.89-21,91.24-29.05ZM201.39,31a8.71,8.71,0,1,0,2.38,12.08A8.71,8.71,0,0,0,201.39,31ZM118.71,75.74a3.28,3.28,0,0,0-4.54.9h0a3.28,3.28,0,0,0,.9,4.54l72.73,48.73a3.28,3.28,0,0,0,4.54-.9h0a3.28,3.28,0,0,0-.9-4.54L118.71,75.74ZM97.3,107.69a3.28,3.28,0,0,0-4.54.9h0a3.28,3.28,0,0,0,.9,4.54l72.73,48.73a3.28,3.28,0,0,0,4.54-.9h0a3.28,3.28,0,0,0-.9-4.54L97.3,107.69ZM75.89,139.63a3.28,3.28,0,0,0-4.54.9h0a3.28,3.28,0,0,0,.9,4.54L145,193.8a3.28,3.28,0,0,0,4.54-.9h0a3.28,3.28,0,0,0-.9-4.54L75.89,139.63ZM54.49,171.58a3.28,3.28,0,0,0-4.54.9h0a3.28,3.28,0,0,0,.9,4.54l72.73,48.73a3.28,3.28,0,0,0,4.54-.9h0a3.28,3.28,0,0,0-.9-4.54Z" transform="translate(-9.11 -4)"/><use id="Minus-3" data-name="Minus" width="67" height="67" transform="translate(160.28 157.4) scale(1.68 1.68)" xlink:href="#Minus"/></svg>