<svg xmlns="http://www.w3.org/2000/svg" viewBox="0 0 526.27 526.27"><defs><style>.cls-1{fill:#ff595c;stroke:#fff;stroke-miterlimit:10;stroke-width:20px;}.cls-2{fill:#fff;}</style></defs><title>Asset 2</title><g id="Layer_2" data-name="Layer 2"><g id="Capa_1" data-name="Capa 1"><circle class="cls-1" cx="263.13" cy="263.13" r="253.13"/><path class="cls-2" d="M409.6,157.13a6.57,6.57,0,0,0-4.84-1.9H339.64L324.88,120q-3.16-7.8-11.38-13.28t-16.65-5.48H229.41a29.75,29.75,0,0,0-16.65,5.48q-8.22,5.48-11.38,13.28l-14.75,35.19H121.51a6.49,6.49,0,0,0-6.74,6.74v13.49a6.49,6.49,0,0,0,6.74,6.74h20.23V382.84q0,17.5,9.9,29.82T175.46,425H350.81q13.91,0,23.82-12.75t9.9-30.24V182.21h20.23a6.49,6.49,0,0,0,6.74-6.74V162A6.57,6.57,0,0,0,409.6,157.13ZM226.25,130.57a5.94,5.94,0,0,1,3.58-2.32h66.81a6,6,0,0,1,3.58,2.32l10.12,24.66H215.93ZM357.55,382a23.88,23.88,0,0,1-1.48,8.53,19,19,0,0,1-3.06,5.69c-1.06,1.2-1.79,1.79-2.21,1.79H175.46c-.42,0-1.16-.59-2.21-1.79a18.9,18.9,0,0,1-3.06-5.69,24,24,0,0,1-1.47-8.53V182.21H357.55V382Z"/><path class="cls-2" d="M202.44,357.55h13.49a6.49,6.49,0,0,0,6.74-6.74V229.41a6.49,6.49,0,0,0-6.74-6.74H202.44a6.49,6.49,0,0,0-6.74,6.74V350.81a6.49,6.49,0,0,0,6.74,6.74Z"/><path class="cls-2" d="M256.39,357.55h13.49a6.49,6.49,0,0,0,6.74-6.74V229.41a6.49,6.49,0,0,0-6.74-6.74H256.39a6.49,6.49,0,0,0-6.74,6.74V350.81a6.49,6.49,0,0,0,6.74,6.74Z"/><path class="cls-2" d="M310.34,357.55h13.48a6.48,6.48,0,0,0,6.74-6.74V229.41a6.48,6.48,0,0,0-6.74-6.74H310.34a6.48,6.48,0,0,0-6.74,6.74V350.81a6.49,6.49,0,0,0,6.74,6.74Z"/></g></g></svg>