<svg id="Layer_1" data-name="Layer 1" xmlns="http://www.w3.org/2000/svg" viewBox="0 0 232.32 269"><defs><style>.cls-1,.cls-4,.cls-5{fill:#fff;}.cls-1,.cls-4,.cls-5,.cls-6{fill-rule:evenodd;}.cls-2,.cls-6{fill:#ff5356;}.cls-3{fill:none;}.cls-4,.cls-5{stroke:#231f20;stroke-miterlimit:22.93;}.cls-4{stroke-width:0.57px;}.cls-5{stroke-width:1.5px;}</style></defs><title>sms</title><path class="cls-1" d="M60.58,4H210.64c5.43,0,9.88,7,9.88,15.65v237.7c0,8.61-4.45,15.65-9.88,15.65H60.58c-5.43,0-9.88-7-9.88-15.65V19.65C50.71,11,55.15,4,60.58,4Z" transform="translate(-50.71 -4)"/><rect class="cls-2" x="22.13" y="36.63" width="125.19" height="181.09"/><rect class="cls-3" x="0.59" y="0.52" width="168.66" height="267.96" rx="23.12" ry="23.12"/><path class="cls-4" d="M135.63,252.8a13.94,13.94,0,1,0-13.94-13.94A14,14,0,0,0,135.63,252.8Z" transform="translate(-50.71 -4)"/><path class="cls-5" d="M204.4,46.05c-43,0-77.87,24.36-77.87,54.41a41.14,41.14,0,0,0,7.35,23.1l-40,61.91,62.77-42c13.19,7.16,29.75,11.43,47.75,11.43,43,0,77.87-24.36,77.87-54.41S247.41,46.05,204.4,46.05Z" transform="translate(-50.71 -4)"/><path class="cls-6" d="M159.14,103.27l6.1-.61a7.44,7.44,0,0,0,2.22,4.49,6.71,6.71,0,0,0,4.52,1.43,6.93,6.93,0,0,0,4.54-1.28,3.81,3.81,0,0,0,1.53-3,2.86,2.86,0,0,0-.64-1.88,5.09,5.09,0,0,0-2.24-1.33c-.73-.26-2.39-.71-5-1.36q-5-1.26-7-3.08A8.21,8.21,0,0,1,161.65,86a8.4,8.4,0,0,1,3.86-3.15,15.36,15.36,0,0,1,6.08-1.08q5.81,0,8.75,2.58a9.17,9.17,0,0,1,3.09,6.9l-6.27.22A5.36,5.36,0,0,0,175.44,88,6.21,6.21,0,0,0,171.51,87a7,7,0,0,0-4.23,1.13,2.28,2.28,0,0,0-1,1.93,2.38,2.38,0,0,0,.93,1.88q1.18,1,5.74,2.08a29.91,29.91,0,0,1,6.73,2.23,8.68,8.68,0,0,1,3.42,3.15,9.22,9.22,0,0,1,1.24,4.93,9.13,9.13,0,0,1-1.48,5,8.86,8.86,0,0,1-4.18,3.45,17.51,17.51,0,0,1-6.75,1.13q-5.87,0-9-2.71A11.77,11.77,0,0,1,159.14,103.27Z" transform="translate(-50.71 -4)"/><polygon class="cls-6" points="138.87 109.31 138.87 78.32 148.27 78.32 153.82 99.46 159.31 78.32 168.73 78.32 168.73 109.31 162.93 109.31 162.91 84.92 156.8 109.31 150.77 109.31 144.69 84.92 144.67 109.31 138.87 109.31"/><path class="cls-6" d="M224.07,103.27l6.1-.61a7.44,7.44,0,0,0,2.22,4.49,6.71,6.71,0,0,0,4.52,1.43,6.93,6.93,0,0,0,4.54-1.28,3.81,3.81,0,0,0,1.53-3,2.86,2.86,0,0,0-.64-1.88,5.09,5.09,0,0,0-2.24-1.33c-.73-.26-2.39-.71-5-1.36q-5-1.26-7-3.08A8.21,8.21,0,0,1,226.57,86a8.4,8.4,0,0,1,3.86-3.15,15.36,15.36,0,0,1,6.08-1.08q5.81,0,8.75,2.58a9.17,9.17,0,0,1,3.09,6.9l-6.27.22A5.36,5.36,0,0,0,240.36,88,6.21,6.21,0,0,0,236.43,87a7,7,0,0,0-4.23,1.13,2.28,2.28,0,0,0-1,1.93,2.38,2.38,0,0,0,.93,1.88q1.18,1,5.74,2.08a29.91,29.91,0,0,1,6.73,2.23A8.68,8.68,0,0,1,248,99.36a9.76,9.76,0,0,1-.24,9.93,8.86,8.86,0,0,1-4.18,3.45,17.51,17.51,0,0,1-6.75,1.13q-5.87,0-9-2.71A11.77,11.77,0,0,1,224.07,103.27Z" transform="translate(-50.71 -4)"/><path class="cls-4" d="M105.23,20.89H166a5,5,0,0,1,5,5h0a5,5,0,0,1-5,5H105.23a5,5,0,0,1-5-5h0A5,5,0,0,1,105.23,20.89Z" transform="translate(-50.71 -4)"/></svg>