<svg id="Layer_1" data-name="Layer 1" xmlns="http://www.w3.org/2000/svg" viewBox="0 0 270 270"><defs><style>.cls-1{fill:none;}.cls-2{fill:#fff;stroke:#231f20;stroke-miterlimit:22.93;stroke-width:0.57px;fill-rule:evenodd;}</style></defs><title>tag</title><rect class="cls-1" width="270" height="270" rx="15.71" ry="15.71"/><path class="cls-2" d="M209.64,7.58c6.2-1.28,9.83,1.27,11,7.49,2.29,27.39,8.18,93.23,7.1,94.84l-104.53,156a11.16,11.16,0,0,1-15.44,3L16.92,208a11.16,11.16,0,0,1-3-15.44l104.53-156c1.27-1.89,64.89-21,91.24-29.05ZM201.39,31a8.71,8.71,0,1,0,2.38,12.08A8.71,8.71,0,0,0,201.39,31ZM118.71,75.74a3.28,3.28,0,0,0-4.54.9h0a3.28,3.28,0,0,0,.9,4.54l72.73,48.73a3.28,3.28,0,0,0,4.54-.9h0a3.28,3.28,0,0,0-.9-4.54L118.71,75.74ZM97.3,107.69a3.28,3.28,0,0,0-4.54.9h0a3.28,3.28,0,0,0,.9,4.54l72.73,48.73a3.28,3.28,0,0,0,4.54-.9h0a3.28,3.28,0,0,0-.9-4.54L97.3,107.69ZM75.89,139.63a3.28,3.28,0,0,0-4.54.9h0a3.28,3.28,0,0,0,.9,4.54L145,193.8a3.28,3.28,0,0,0,4.54-.9h0a3.28,3.28,0,0,0-.9-4.54L75.89,139.63ZM54.49,171.58a3.28,3.28,0,0,0-4.54.9h0a3.28,3.28,0,0,0,.9,4.54l72.73,48.73a3.28,3.28,0,0,0,4.54-.9h0a3.28,3.28,0,0,0-.9-4.54Z" transform="translate(-9.11 -4)"/></svg>