<svg xmlns="http://www.w3.org/2000/svg" viewBox="0 0 526.27 526.27"><defs><style>.cls-1{fill:#ffae01;stroke:#fff;stroke-miterlimit:10;stroke-width:20px;}.cls-2{fill:#fff;}</style></defs><title>Asset 1</title><g id="Layer_2" data-name="Layer 2"><g id="Layer_1-2" data-name="Layer 1"><circle class="cls-1" cx="263.13" cy="263.13" r="253.13"/><path class="cls-2" d="M454.7,344.68,283.6,60.91a23.9,23.9,0,0,0-40.93,0L71.57,344.68A23.9,23.9,0,0,0,92,380.91H434.24a23.9,23.9,0,0,0,20.46-36.23ZM263.26,147.51c9.83,0,18.14,5.54,18.14,15.37,0,30-3.53,73.07-3.53,103.05,0,7.81-8.57,11.09-14.61,11.09-8.06,0-14.87-3.28-14.87-11.09,0-30-3.53-73.07-3.53-103.05C244.87,153.06,252.93,147.51,263.26,147.51Zm.25,185.7a19.4,19.4,0,1,1,19.15-19.4C282.66,324.14,273.84,333.22,263.51,333.22Z"/></g></g></svg>